<?xml version="1.0" encoding="utf-8"?>
<!-- Generator: Adobe Illustrator 27.5.0, SVG Export Plug-In . SVG Version: 6.00 Build 0)  -->
<svg version="1.1" xmlns="http://www.w3.org/2000/svg" xmlns:xlink="http://www.w3.org/1999/xlink" x="0px" y="0px"
	 viewBox="0 0 500 500" style="enable-background:new 0 0 500 500;" xml:space="preserve">
<g id="BACKGROUND">
	<rect style="fill:#FFFFFF;" width="500" height="500"/>
</g>
<g id="DESIGNED_BY_FREEPIK">
	<g>
		<g>
			<g>
				<path style="fill:#86C7E0;" d="M180.308,476.67v-0.16c-0.218,0.248-0.433,0.453-0.645,0.607
					c-0.211,0.158-0.44,0.276-0.689,0.356c-0.246,0.084-0.517,0.122-0.81,0.122c-0.388,0-0.748-0.081-1.077-0.245
					c-0.332-0.164-0.617-0.399-0.859-0.704c-0.24-0.304-0.424-0.661-0.549-1.075c-0.125-0.41-0.187-0.856-0.187-1.335
					c0-1.013,0.248-1.803,0.742-2.369c0.495-0.564,1.146-0.849,1.953-0.849c0.467,0,0.86,0.08,1.182,0.241
					c0.319,0.16,0.632,0.407,0.938,0.738v-2.392c0-0.333,0.065-0.583,0.198-0.755c0.133-0.169,0.322-0.255,0.567-0.255
					c0.245,0,0.435,0.079,0.567,0.234c0.132,0.158,0.199,0.388,0.199,0.692v7.146c0,0.31-0.071,0.54-0.214,0.695
					c-0.144,0.153-0.327,0.23-0.553,0.23c-0.222,0-0.404-0.079-0.55-0.239C180.379,477.196,180.308,476.967,180.308,476.67z
					 M177.121,474.29c0,0.439,0.068,0.813,0.203,1.123c0.137,0.308,0.323,0.54,0.562,0.696c0.238,0.156,0.497,0.235,0.778,0.235
					c0.283,0,0.543-0.074,0.781-0.224c0.234-0.147,0.422-0.376,0.563-0.683c0.142-0.306,0.211-0.691,0.211-1.148
					c0-0.432-0.069-0.804-0.211-1.113c-0.141-0.311-0.33-0.548-0.569-0.713c-0.24-0.164-0.501-0.245-0.787-0.245
					c-0.297,0-0.562,0.084-0.795,0.252c-0.234,0.168-0.415,0.409-0.543,0.724C177.184,473.509,177.121,473.874,177.121,474.29z"/>
				<path style="fill:#86C7E0;" d="M187.453,474.7h-3.168c0.003,0.368,0.076,0.692,0.222,0.973c0.145,0.281,0.337,0.494,0.576,0.635
					c0.239,0.144,0.503,0.215,0.792,0.215c0.195,0,0.371-0.022,0.531-0.068c0.161-0.046,0.316-0.117,0.467-0.214
					c0.15-0.098,0.289-0.201,0.414-0.311c0.127-0.111,0.291-0.262,0.494-0.452c0.082-0.071,0.201-0.107,0.355-0.107
					c0.166,0,0.301,0.046,0.403,0.138c0.103,0.091,0.155,0.219,0.155,0.386c0,0.146-0.058,0.316-0.172,0.513
					c-0.117,0.196-0.289,0.384-0.52,0.563c-0.231,0.182-0.521,0.329-0.872,0.447c-0.35,0.12-0.752,0.179-1.208,0.179
					c-1.042,0-1.851-0.297-2.429-0.89c-0.576-0.594-0.865-1.398-0.865-2.416c0-0.48,0.07-0.924,0.213-1.333
					c0.143-0.409,0.35-0.761,0.623-1.053c0.273-0.294,0.609-0.519,1.01-0.674c0.399-0.157,0.843-0.235,1.33-0.235
					c0.633,0,1.176,0.134,1.628,0.4c0.454,0.268,0.794,0.613,1.019,1.036c0.226,0.423,0.339,0.855,0.339,1.293
					c0,0.41-0.116,0.673-0.35,0.794C188.207,474.64,187.877,474.7,187.453,474.7z M184.285,473.78h2.938
					c-0.039-0.555-0.19-0.97-0.447-1.244c-0.26-0.275-0.601-0.413-1.025-0.413c-0.403,0-0.735,0.14-0.994,0.418
					C184.497,472.82,184.34,473.232,184.285,473.78z"/>
				<path style="fill:#86C7E0;" d="M194.838,475.477c0,0.447-0.107,0.83-0.326,1.148c-0.217,0.319-0.539,0.561-0.965,0.726
					c-0.426,0.164-0.943,0.245-1.553,0.245c-0.58,0-1.08-0.089-1.494-0.268c-0.416-0.176-0.723-0.399-0.922-0.666
					c-0.197-0.269-0.296-0.536-0.296-0.806c0-0.179,0.062-0.33,0.191-0.456c0.126-0.127,0.287-0.19,0.48-0.19
					c0.17,0,0.299,0.042,0.391,0.126c0.092,0.082,0.179,0.2,0.262,0.349c0.166,0.29,0.365,0.504,0.598,0.648
					c0.232,0.141,0.547,0.213,0.947,0.213c0.324,0,0.59-0.073,0.797-0.217c0.209-0.146,0.313-0.311,0.313-0.495
					c0-0.286-0.107-0.492-0.324-0.624c-0.216-0.129-0.57-0.256-1.065-0.374c-0.558-0.138-1.012-0.284-1.362-0.438
					c-0.351-0.151-0.63-0.352-0.84-0.602c-0.21-0.249-0.314-0.557-0.314-0.92c0-0.324,0.096-0.631,0.29-0.921
					c0.194-0.288,0.481-0.519,0.859-0.691c0.378-0.171,0.833-0.258,1.367-0.258c0.42,0,0.798,0.044,1.13,0.132
					c0.335,0.086,0.614,0.203,0.838,0.35c0.224,0.145,0.395,0.309,0.51,0.487c0.118,0.177,0.175,0.351,0.175,0.522
					c0,0.185-0.062,0.338-0.185,0.458c-0.125,0.117-0.303,0.179-0.533,0.179c-0.166,0-0.307-0.048-0.424-0.145
					c-0.117-0.094-0.25-0.237-0.4-0.426c-0.123-0.159-0.268-0.286-0.433-0.382c-0.167-0.095-0.392-0.141-0.678-0.141
					c-0.293,0-0.536,0.061-0.73,0.186c-0.194,0.126-0.291,0.28-0.291,0.466c0,0.171,0.07,0.31,0.213,0.418
					c0.143,0.111,0.334,0.201,0.577,0.271c0.24,0.071,0.572,0.158,0.997,0.261c0.502,0.123,0.912,0.27,1.23,0.439
					c0.318,0.169,0.561,0.371,0.726,0.603C194.756,474.917,194.838,475.18,194.838,475.477z"/>
				<path style="fill:#86C7E0;" d="M196.494,470.254c-0.225,0-0.419-0.07-0.578-0.208c-0.162-0.138-0.24-0.334-0.24-0.588
					c0-0.23,0.081-0.418,0.244-0.566c0.165-0.149,0.357-0.224,0.574-0.224c0.21,0,0.395,0.067,0.558,0.203
					c0.163,0.134,0.243,0.329,0.243,0.587c0,0.249-0.08,0.443-0.238,0.584C196.899,470.183,196.711,470.254,196.494,470.254z
					 M197.295,471.927v4.685c0,0.324-0.076,0.569-0.23,0.736c-0.155,0.166-0.351,0.248-0.588,0.248c-0.238,0-0.432-0.083-0.58-0.255
					c-0.148-0.17-0.221-0.413-0.221-0.729v-4.636c0-0.321,0.072-0.563,0.221-0.726c0.148-0.161,0.342-0.243,0.58-0.243
					c0.237,0,0.433,0.082,0.588,0.243C197.219,471.413,197.295,471.639,197.295,471.927z"/>
				<path style="fill:#86C7E0;" d="M204.395,472.194v4.707c0,0.539-0.058,1.003-0.174,1.39c-0.113,0.388-0.297,0.709-0.551,0.962
					c-0.253,0.252-0.586,0.441-0.994,0.564c-0.409,0.123-0.92,0.184-1.528,0.184c-0.558,0-1.058-0.077-1.497-0.233
					c-0.438-0.158-0.775-0.359-1.014-0.606c-0.238-0.247-0.356-0.501-0.356-0.762c0-0.198,0.067-0.36,0.201-0.484
					c0.134-0.125,0.298-0.188,0.487-0.188c0.236,0,0.445,0.105,0.623,0.315c0.088,0.105,0.176,0.214,0.27,0.322
					c0.093,0.111,0.196,0.203,0.309,0.28c0.112,0.077,0.248,0.135,0.406,0.173c0.157,0.036,0.341,0.055,0.546,0.055
					c0.42,0,0.746-0.059,0.977-0.175c0.232-0.116,0.395-0.279,0.487-0.489c0.093-0.209,0.147-0.434,0.163-0.674
					c0.016-0.24,0.027-0.625,0.036-1.155c-0.251,0.349-0.538,0.614-0.864,0.796c-0.326,0.182-0.716,0.273-1.166,0.273
					c-0.542,0-1.016-0.139-1.422-0.416c-0.406-0.277-0.719-0.665-0.936-1.164c-0.217-0.498-0.326-1.074-0.326-1.727
					c0-0.485,0.066-0.927,0.199-1.317c0.133-0.393,0.321-0.723,0.566-0.992c0.245-0.268,0.529-0.471,0.848-0.607
					c0.322-0.138,0.674-0.206,1.058-0.206c0.459,0,0.857,0.09,1.194,0.264c0.336,0.177,0.648,0.453,0.938,0.829v-0.22
					c0-0.281,0.068-0.498,0.207-0.653c0.14-0.153,0.317-0.232,0.535-0.232c0.313,0,0.52,0.103,0.622,0.306
					C204.344,471.517,204.395,471.811,204.395,472.194z M199.699,474.249c0,0.656,0.143,1.153,0.431,1.488
					c0.286,0.338,0.657,0.506,1.112,0.506c0.27,0,0.523-0.073,0.762-0.217c0.24-0.145,0.436-0.363,0.587-0.653
					c0.148-0.29,0.224-0.643,0.224-1.059c0-0.661-0.145-1.176-0.436-1.543c-0.291-0.367-0.674-0.552-1.148-0.552
					c-0.464,0-0.835,0.177-1.113,0.528C199.838,473.099,199.699,473.6,199.699,474.249z"/>
				<path style="fill:#86C7E0;" d="M206.971,471.904v0.195c0.284-0.376,0.596-0.653,0.935-0.828
					c0.339-0.176,0.727-0.265,1.165-0.265c0.428,0,0.811,0.094,1.146,0.279c0.336,0.187,0.589,0.449,0.754,0.788
					c0.107,0.2,0.177,0.413,0.207,0.643c0.031,0.229,0.049,0.522,0.049,0.88v3.015c0,0.324-0.074,0.569-0.223,0.736
					c-0.148,0.166-0.342,0.248-0.578,0.248c-0.242,0-0.438-0.083-0.588-0.255c-0.152-0.17-0.227-0.413-0.227-0.729v-2.702
					c0-0.533-0.074-0.941-0.223-1.225c-0.148-0.283-0.443-0.426-0.888-0.426c-0.288,0-0.552,0.087-0.788,0.26
					c-0.238,0.171-0.413,0.408-0.523,0.709c-0.078,0.241-0.119,0.691-0.119,1.354v2.03c0,0.327-0.076,0.575-0.229,0.739
					c-0.15,0.164-0.349,0.245-0.589,0.245c-0.235,0-0.427-0.083-0.577-0.255c-0.149-0.17-0.225-0.413-0.225-0.729v-4.685
					c0-0.309,0.066-0.54,0.201-0.692c0.134-0.151,0.318-0.228,0.551-0.228c0.144,0,0.273,0.033,0.388,0.102
					c0.113,0.067,0.206,0.168,0.275,0.303C206.936,471.545,206.971,471.71,206.971,471.904z"/>
				<path style="fill:#86C7E0;" d="M216.828,474.7h-3.168c0.003,0.368,0.078,0.692,0.222,0.973c0.146,0.281,0.337,0.494,0.576,0.635
					c0.239,0.144,0.503,0.215,0.792,0.215c0.195,0,0.371-0.022,0.533-0.068c0.158-0.046,0.315-0.117,0.465-0.214
					c0.15-0.098,0.287-0.201,0.416-0.311c0.125-0.111,0.291-0.262,0.492-0.452c0.082-0.071,0.201-0.107,0.355-0.107
					c0.166,0,0.301,0.046,0.404,0.138c0.104,0.091,0.154,0.219,0.154,0.386c0,0.146-0.058,0.316-0.172,0.513
					c-0.115,0.196-0.289,0.384-0.52,0.563c-0.231,0.182-0.521,0.329-0.872,0.447c-0.35,0.12-0.752,0.179-1.208,0.179
					c-1.042,0-1.851-0.297-2.428-0.89c-0.578-0.594-0.866-1.398-0.866-2.416c0-0.48,0.07-0.924,0.213-1.333
					c0.143-0.409,0.35-0.761,0.624-1.053c0.273-0.294,0.608-0.519,1.009-0.674c0.399-0.157,0.843-0.235,1.33-0.235
					c0.633,0,1.176,0.134,1.628,0.4c0.454,0.268,0.794,0.613,1.019,1.036c0.225,0.423,0.338,0.855,0.338,1.293
					c0,0.41-0.116,0.673-0.35,0.794C217.582,474.64,217.254,474.7,216.828,474.7z M213.66,473.78h2.938
					c-0.039-0.555-0.19-0.97-0.447-1.244c-0.26-0.275-0.601-0.413-1.025-0.413c-0.403,0-0.735,0.14-0.994,0.418
					C213.872,472.82,213.715,473.232,213.66,473.78z"/>
				<path style="fill:#86C7E0;" d="M223.436,476.67v-0.16c-0.217,0.248-0.433,0.453-0.643,0.607
					c-0.212,0.158-0.442,0.276-0.689,0.356c-0.248,0.084-0.518,0.122-0.811,0.122c-0.389,0-0.748-0.081-1.078-0.245
					c-0.33-0.164-0.617-0.399-0.857-0.704c-0.241-0.304-0.424-0.661-0.549-1.075c-0.125-0.41-0.186-0.856-0.186-1.335
					c0-1.013,0.247-1.803,0.741-2.369c0.495-0.564,1.146-0.849,1.953-0.849c0.467,0,0.861,0.08,1.182,0.241
					c0.32,0.16,0.633,0.407,0.938,0.738v-2.392c0-0.333,0.066-0.583,0.198-0.755c0.134-0.169,0.323-0.255,0.567-0.255
					c0.246,0,0.434,0.079,0.566,0.234c0.134,0.158,0.199,0.388,0.199,0.692v7.146c0,0.31-0.07,0.54-0.213,0.695
					c-0.143,0.153-0.326,0.23-0.553,0.23c-0.222,0-0.404-0.079-0.549-0.239C223.507,477.196,223.436,476.967,223.436,476.67z
					 M220.248,474.29c0,0.439,0.068,0.813,0.205,1.123c0.135,0.308,0.323,0.54,0.561,0.696c0.236,0.156,0.495,0.235,0.776,0.235
					c0.285,0,0.545-0.074,0.781-0.224c0.235-0.147,0.424-0.376,0.564-0.683c0.14-0.306,0.209-0.691,0.209-1.148
					c0-0.432-0.069-0.804-0.209-1.113c-0.141-0.311-0.331-0.548-0.57-0.713c-0.24-0.164-0.502-0.245-0.787-0.245
					c-0.297,0-0.563,0.084-0.795,0.252c-0.233,0.168-0.415,0.409-0.544,0.724C220.311,473.509,220.248,473.874,220.248,474.29z"/>
				<path style="fill:#86C7E0;" d="M230.059,469.523v2.475c0.305-0.316,0.615-0.559,0.934-0.726
					c0.315-0.169,0.707-0.253,1.174-0.253c0.539,0,1.01,0.128,1.417,0.382c0.405,0.257,0.719,0.627,0.943,1.111
					c0.224,0.485,0.335,1.06,0.335,1.725c0,0.491-0.062,0.94-0.186,1.351c-0.126,0.41-0.307,0.765-0.544,1.065
					c-0.237,0.3-0.526,0.534-0.864,0.698c-0.338,0.164-0.711,0.245-1.119,0.245c-0.249,0-0.483-0.029-0.703-0.089
					c-0.22-0.059-0.406-0.137-0.562-0.234c-0.153-0.097-0.286-0.196-0.394-0.299c-0.109-0.103-0.254-0.258-0.432-0.464v0.16
					c0,0.305-0.072,0.535-0.22,0.693c-0.146,0.155-0.332,0.232-0.558,0.232c-0.23,0-0.412-0.077-0.548-0.232
					c-0.138-0.158-0.206-0.389-0.206-0.693v-7.075c0-0.329,0.066-0.578,0.198-0.745c0.133-0.169,0.318-0.253,0.556-0.253
					c0.25,0,0.441,0.081,0.576,0.241C229.991,468.998,230.059,469.226,230.059,469.523z M230.137,474.338
					c0,0.645,0.146,1.14,0.442,1.485c0.294,0.347,0.681,0.521,1.16,0.521c0.406,0,0.759-0.177,1.054-0.532
					c0.295-0.353,0.442-0.861,0.442-1.522c0-0.428-0.062-0.795-0.185-1.105c-0.122-0.308-0.297-0.547-0.521-0.715
					c-0.226-0.168-0.49-0.252-0.79-0.252c-0.309,0-0.585,0.084-0.825,0.252c-0.242,0.168-0.432,0.411-0.57,0.729
					C230.205,473.519,230.137,473.898,230.137,474.338z"/>
				<path style="fill:#86C7E0;" d="M236.963,477.799l0.148-0.363l-1.995-5.021c-0.121-0.288-0.184-0.499-0.184-0.63
					c0-0.138,0.037-0.267,0.107-0.385c0.072-0.119,0.17-0.215,0.294-0.285c0.125-0.072,0.254-0.107,0.389-0.107
					c0.233,0,0.41,0.074,0.528,0.224c0.119,0.147,0.223,0.359,0.314,0.637l1.371,3.989l1.301-3.71
					c0.102-0.3,0.196-0.536,0.279-0.706c0.083-0.17,0.17-0.285,0.264-0.344c0.092-0.06,0.225-0.09,0.395-0.09
					c0.124,0,0.242,0.032,0.354,0.1c0.112,0.063,0.2,0.152,0.262,0.263c0.061,0.111,0.092,0.227,0.092,0.351
					c-0.017,0.074-0.041,0.182-0.078,0.321c-0.035,0.138-0.078,0.279-0.13,0.421l-2.113,5.532c-0.182,0.486-0.36,0.868-0.534,1.145
					c-0.175,0.276-0.404,0.491-0.691,0.638c-0.287,0.149-0.674,0.224-1.161,0.224c-0.475,0-0.831-0.051-1.067-0.153
					c-0.238-0.104-0.357-0.291-0.357-0.565c0-0.186,0.057-0.329,0.17-0.43c0.113-0.102,0.279-0.152,0.501-0.152
					c0.087,0,0.173,0.011,0.257,0.036c0.102,0.023,0.191,0.036,0.266,0.036c0.186,0,0.333-0.027,0.439-0.084
					c0.107-0.055,0.203-0.151,0.287-0.288C236.754,478.266,236.852,478.064,236.963,477.799z"/>
			</g>
			<g>
				<path style="fill:#86C7E0;" d="M260.439,471.147h0.387v-0.485c0-0.509,0.063-0.911,0.191-1.211
					c0.128-0.3,0.347-0.517,0.655-0.652c0.306-0.136,0.726-0.205,1.26-0.205c0.949,0,1.42,0.229,1.42,0.697
					c0,0.148-0.05,0.277-0.15,0.383c-0.096,0.106-0.214,0.161-0.349,0.161c-0.063,0-0.173-0.012-0.329-0.038
					c-0.148-0.02-0.282-0.034-0.39-0.034c-0.292,0-0.479,0.088-0.565,0.26c-0.08,0.173-0.123,0.417-0.123,0.74v0.385h0.396
					c0.619,0,0.925,0.186,0.925,0.561c0,0.261-0.079,0.431-0.245,0.502c-0.163,0.071-0.389,0.106-0.68,0.106h-0.396v4.295
					c0,0.319-0.076,0.563-0.23,0.729c-0.151,0.172-0.347,0.254-0.59,0.254c-0.23,0-0.418-0.082-0.573-0.254
					c-0.153-0.167-0.227-0.41-0.227-0.729v-4.295h-0.446c-0.242,0-0.427-0.052-0.559-0.164c-0.13-0.106-0.196-0.248-0.196-0.423
					C259.625,471.34,259.896,471.147,260.439,471.147"/>
				<path style="fill:#86C7E0;" d="M265.745,475.256v1.355c0,0.326-0.082,0.575-0.233,0.737c-0.154,0.166-0.35,0.246-0.586,0.246
					c-0.238,0-0.43-0.081-0.579-0.251c-0.147-0.164-0.226-0.409-0.226-0.733v-4.515c0-0.729,0.263-1.093,0.789-1.093
					c0.271,0,0.463,0.085,0.583,0.256c0.118,0.17,0.185,0.421,0.198,0.754c0.191-0.333,0.391-0.584,0.593-0.754
					c0.208-0.171,0.477-0.256,0.818-0.256c0.343,0,0.669,0.085,0.991,0.256c0.321,0.17,0.481,0.397,0.481,0.677
					c0,0.196-0.069,0.362-0.204,0.489c-0.138,0.13-0.284,0.195-0.441,0.195c-0.061,0-0.206-0.04-0.432-0.113
					c-0.228-0.071-0.432-0.108-0.602-0.108c-0.237,0-0.433,0.064-0.582,0.186c-0.151,0.129-0.27,0.311-0.353,0.554
					c-0.081,0.248-0.138,0.541-0.171,0.879C265.759,474.356,265.745,474.771,265.745,475.256"/>
				<path style="fill:#86C7E0;" d="M273.196,474.698h-3.172c0.007,0.367,0.079,0.694,0.222,0.974
					c0.147,0.28,0.338,0.492,0.578,0.636c0.24,0.143,0.503,0.214,0.794,0.214c0.192,0,0.369-0.022,0.53-0.07
					c0.158-0.044,0.315-0.116,0.465-0.214c0.151-0.096,0.288-0.199,0.416-0.313c0.126-0.108,0.291-0.26,0.494-0.449
					c0.084-0.071,0.202-0.108,0.354-0.108c0.167,0,0.301,0.047,0.405,0.139c0.103,0.092,0.152,0.218,0.152,0.387
					c0,0.145-0.056,0.317-0.167,0.511c-0.117,0.199-0.289,0.386-0.522,0.566c-0.233,0.178-0.525,0.329-0.874,0.446
					c-0.349,0.119-0.753,0.179-1.207,0.179c-1.044,0-1.853-0.296-2.429-0.889c-0.578-0.595-0.869-1.402-0.869-2.417
					c0-0.479,0.073-0.925,0.217-1.334c0.141-0.412,0.349-0.761,0.624-1.055c0.271-0.294,0.606-0.518,1.008-0.674
					c0.398-0.157,0.841-0.234,1.33-0.234c0.632,0,1.175,0.134,1.629,0.403c0.451,0.265,0.796,0.611,1.019,1.034
					c0.225,0.425,0.338,0.855,0.338,1.296c0,0.406-0.117,0.67-0.351,0.792C273.948,474.638,273.619,474.698,273.196,474.698
					 M270.024,473.776h2.939c-0.039-0.553-0.186-0.968-0.446-1.241c-0.261-0.276-0.599-0.413-1.025-0.413
					c-0.403,0-0.735,0.139-0.994,0.419C270.238,472.819,270.079,473.23,270.024,473.776"/>
				<path style="fill:#86C7E0;" d="M279.938,474.698h-3.17c0.004,0.367,0.078,0.694,0.221,0.974c0.146,0.28,0.337,0.492,0.576,0.636
					c0.24,0.143,0.503,0.214,0.795,0.214c0.192,0,0.369-0.022,0.527-0.07c0.163-0.044,0.316-0.116,0.469-0.214
					c0.151-0.096,0.288-0.199,0.415-0.313c0.124-0.108,0.29-0.26,0.493-0.449c0.084-0.071,0.203-0.108,0.354-0.108
					c0.169,0,0.302,0.047,0.407,0.139c0.103,0.092,0.149,0.218,0.149,0.387c0,0.145-0.054,0.317-0.17,0.511
					c-0.111,0.199-0.285,0.386-0.519,0.566c-0.232,0.178-0.526,0.329-0.874,0.446c-0.348,0.119-0.754,0.179-1.208,0.179
					c-1.043,0-1.849-0.296-2.429-0.889c-0.578-0.595-0.868-1.402-0.868-2.417c0-0.479,0.072-0.925,0.218-1.334
					c0.142-0.412,0.349-0.761,0.622-1.055c0.272-0.294,0.608-0.518,1.008-0.674c0.399-0.157,0.846-0.234,1.331-0.234
					c0.631,0,1.174,0.134,1.634,0.403c0.45,0.265,0.79,0.611,1.013,1.034c0.225,0.425,0.341,0.855,0.341,1.296
					c0,0.406-0.12,0.67-0.351,0.792C280.689,474.638,280.36,474.698,279.938,474.698 M276.768,473.776h2.938
					c-0.039-0.553-0.189-0.968-0.445-1.241c-0.265-0.276-0.603-0.413-1.027-0.413c-0.404,0-0.735,0.139-0.996,0.419
					C276.978,472.819,276.82,473.23,276.768,473.776"/>
				<path style="fill:#86C7E0;" d="M283.488,471.917v0.193c0.304-0.376,0.621-0.652,0.952-0.828
					c0.324-0.178,0.699-0.267,1.113-0.267c0.497,0,0.96,0.13,1.38,0.385c0.42,0.26,0.749,0.636,0.993,1.13
					c0.244,0.497,0.367,1.082,0.367,1.759c0,0.497-0.071,0.958-0.21,1.376c-0.142,0.417-0.337,0.767-0.582,1.049
					c-0.244,0.281-0.535,0.502-0.867,0.654c-0.339,0.15-0.694,0.227-1.081,0.227c-0.462,0-0.852-0.093-1.165-0.28
					c-0.314-0.182-0.614-0.457-0.9-0.815v2.433c0,0.709-0.261,1.067-0.778,1.067c-0.307,0-0.506-0.091-0.608-0.274
					c-0.095-0.186-0.146-0.451-0.146-0.807v-6.996c0-0.308,0.068-0.537,0.201-0.691c0.134-0.149,0.319-0.228,0.553-0.228
					c0.23,0,0.416,0.078,0.561,0.233C283.417,471.396,283.488,471.619,283.488,471.917 M286.665,474.272
					c0-0.429-0.065-0.796-0.196-1.104c-0.132-0.307-0.312-0.542-0.541-0.704c-0.23-0.165-0.49-0.247-0.77-0.247
					c-0.447,0-0.824,0.177-1.132,0.527c-0.307,0.354-0.462,0.871-0.462,1.558c0,0.642,0.152,1.146,0.46,1.504
					c0.305,0.358,0.68,0.537,1.134,0.537c0.267,0,0.518-0.08,0.748-0.233c0.231-0.157,0.414-0.392,0.551-0.705
					C286.596,475.091,286.665,474.713,286.665,474.272"/>
				<path style="fill:#86C7E0;" d="M289.926,470.25c-0.228,0-0.419-0.072-0.578-0.21c-0.162-0.14-0.241-0.333-0.241-0.585
					c0-0.232,0.081-0.418,0.247-0.568c0.164-0.147,0.355-0.223,0.572-0.223c0.213,0,0.397,0.065,0.558,0.198
					c0.163,0.137,0.244,0.335,0.244,0.593c0,0.249-0.079,0.444-0.236,0.585C290.334,470.178,290.146,470.25,289.926,470.25
					 M290.727,471.923v4.689c0,0.322-0.077,0.567-0.23,0.732c-0.156,0.17-0.351,0.251-0.589,0.251c-0.237,0-0.428-0.082-0.579-0.254
					c-0.148-0.172-0.223-0.416-0.223-0.728v-4.643c0-0.318,0.075-0.559,0.223-0.722c0.151-0.165,0.342-0.244,0.579-0.244
					c0.238,0,0.433,0.079,0.589,0.244C290.65,471.411,290.727,471.638,290.727,471.923"/>
				<path style="fill:#86C7E0;" d="M295.952,476.855l-1.427-2.353l-0.881,0.829v1.292c0,0.312-0.082,0.551-0.247,0.718
					c-0.161,0.172-0.354,0.254-0.566,0.254c-0.249,0-0.447-0.081-0.589-0.251c-0.142-0.164-0.214-0.409-0.214-0.733v-6.914
					c0-0.359,0.071-0.632,0.206-0.822c0.141-0.19,0.341-0.282,0.597-0.282c0.249,0,0.445,0.086,0.594,0.257
					c0.145,0.17,0.22,0.421,0.22,0.751v3.934l1.823-1.913c0.226-0.236,0.395-0.401,0.516-0.487c0.119-0.087,0.264-0.13,0.432-0.13
					c0.204,0,0.371,0.064,0.51,0.193c0.133,0.128,0.2,0.29,0.2,0.483c0,0.237-0.221,0.556-0.659,0.95l-0.86,0.789l1.662,2.614
					c0.12,0.195,0.212,0.34,0.264,0.441c0.053,0.1,0.082,0.2,0.082,0.289c0,0.258-0.072,0.459-0.213,0.608
					c-0.142,0.149-0.327,0.222-0.553,0.222c-0.198,0-0.354-0.05-0.46-0.16C296.281,477.327,296.134,477.133,295.952,476.855"/>
				<path style="fill:#86C7E0;" d="M299.476,477.595c-0.245,0-0.455-0.078-0.634-0.238c-0.178-0.154-0.269-0.378-0.269-0.665
					c0-0.24,0.087-0.449,0.256-0.622c0.172-0.174,0.38-0.262,0.63-0.262c0.249,0,0.46,0.088,0.64,0.258
					c0.175,0.172,0.264,0.384,0.264,0.626c0,0.283-0.089,0.506-0.264,0.663C299.919,477.517,299.712,477.595,299.476,477.595"/>
				<path style="fill:#86C7E0;" d="M307.536,475.589c0,0.201-0.061,0.418-0.182,0.646c-0.119,0.232-0.305,0.449-0.554,0.657
					c-0.246,0.207-0.557,0.376-0.934,0.502c-0.376,0.127-0.802,0.191-1.271,0.191c-1.003,0-1.785-0.293-2.348-0.875
					c-0.56-0.585-0.841-1.368-0.841-2.35c0-0.668,0.127-1.254,0.386-1.766c0.255-0.509,0.628-0.904,1.114-1.184
					c0.486-0.28,1.072-0.419,1.746-0.419c0.421,0,0.805,0.061,1.157,0.184c0.35,0.123,0.646,0.282,0.892,0.476
					c0.242,0.196,0.428,0.401,0.556,0.619c0.129,0.221,0.192,0.426,0.192,0.617c0,0.192-0.07,0.357-0.215,0.492
					c-0.147,0.134-0.322,0.203-0.523,0.203c-0.137,0-0.249-0.036-0.338-0.105c-0.091-0.069-0.19-0.181-0.299-0.339
					c-0.2-0.299-0.404-0.525-0.624-0.675c-0.214-0.151-0.487-0.226-0.821-0.226c-0.476,0-0.863,0.187-1.158,0.562
					c-0.291,0.371-0.439,0.887-0.439,1.534c0,0.305,0.04,0.587,0.115,0.842c0.073,0.254,0.182,0.472,0.324,0.651
					c0.145,0.18,0.314,0.315,0.517,0.409c0.202,0.097,0.426,0.142,0.665,0.142c0.326,0,0.604-0.075,0.836-0.226
					c0.234-0.15,0.438-0.38,0.616-0.688c0.098-0.183,0.204-0.323,0.318-0.427c0.114-0.103,0.255-0.157,0.422-0.157
					c0.197,0,0.362,0.077,0.491,0.227C307.47,475.258,307.536,475.419,307.536,475.589"/>
				<path style="fill:#86C7E0;" d="M314.53,474.302c0,0.48-0.076,0.927-0.223,1.337c-0.153,0.407-0.369,0.757-0.655,1.049
					c-0.284,0.292-0.626,0.517-1.02,0.674c-0.399,0.155-0.844,0.234-1.336,0.234c-0.491,0-0.934-0.079-1.326-0.239
					c-0.39-0.154-0.73-0.383-1.016-0.676c-0.289-0.299-0.506-0.646-0.658-1.048c-0.143-0.403-0.219-0.847-0.219-1.331
					c0-0.492,0.077-0.941,0.224-1.349c0.151-0.41,0.369-0.759,0.649-1.047c0.282-0.288,0.622-0.511,1.02-0.669
					c0.402-0.155,0.843-0.233,1.326-0.233c0.489,0,0.935,0.078,1.336,0.238c0.398,0.157,0.74,0.384,1.027,0.676
					c0.286,0.296,0.503,0.643,0.649,1.044C314.455,473.369,314.53,473.811,314.53,474.302 M312.903,474.302
					c0-0.661-0.146-1.176-0.435-1.543c-0.29-0.373-0.683-0.556-1.172-0.556c-0.318,0-0.598,0.083-0.839,0.246
					c-0.241,0.164-0.427,0.405-0.557,0.729c-0.131,0.32-0.197,0.695-0.197,1.124c0,0.424,0.064,0.791,0.192,1.108
					c0.131,0.318,0.315,0.56,0.555,0.729c0.24,0.166,0.521,0.253,0.846,0.253c0.489,0,0.882-0.186,1.172-0.558
					C312.757,475.465,312.903,474.952,312.903,474.302"/>
				<path style="fill:#86C7E0;" d="M320.713,474.419v2.155c0,0.342-0.076,0.595-0.23,0.767c-0.157,0.172-0.357,0.255-0.612,0.255
					c-0.244,0-0.445-0.083-0.595-0.255c-0.153-0.172-0.232-0.425-0.232-0.767v-2.582c0-0.408-0.014-0.726-0.04-0.952
					c-0.028-0.222-0.105-0.41-0.226-0.553c-0.123-0.147-0.318-0.22-0.583-0.22c-0.53,0-0.878,0.182-1.047,0.551
					c-0.168,0.36-0.254,0.884-0.254,1.567v2.188c0,0.335-0.076,0.591-0.226,0.765c-0.157,0.17-0.355,0.257-0.603,0.257
					c-0.247,0-0.447-0.087-0.604-0.257c-0.156-0.174-0.234-0.43-0.234-0.765v-4.638c0-0.305,0.068-0.537,0.209-0.694
					c0.144-0.16,0.328-0.238,0.557-0.238c0.222,0,0.407,0.077,0.558,0.223c0.146,0.149,0.22,0.354,0.22,0.615v0.152
					c0.283-0.334,0.585-0.582,0.904-0.737c0.321-0.162,0.676-0.241,1.07-0.241c0.406,0,0.756,0.081,1.049,0.244
					c0.292,0.162,0.532,0.408,0.725,0.734c0.274-0.329,0.567-0.575,0.882-0.737c0.313-0.161,0.658-0.241,1.038-0.241
					c0.44,0,0.825,0.089,1.146,0.262c0.32,0.174,0.56,0.425,0.718,0.747c0.138,0.296,0.206,0.756,0.206,1.386v3.164
					c0,0.342-0.075,0.595-0.23,0.767c-0.154,0.172-0.358,0.255-0.611,0.255c-0.247,0-0.447-0.087-0.602-0.257
					c-0.157-0.174-0.236-0.43-0.236-0.765v-2.727c0-0.349-0.015-0.626-0.043-0.835c-0.029-0.211-0.11-0.389-0.239-0.53
					c-0.133-0.142-0.332-0.215-0.595-0.215c-0.215,0-0.417,0.067-0.609,0.193c-0.192,0.123-0.343,0.298-0.451,0.508
					C320.773,473.241,320.713,473.726,320.713,474.419"/>
			</g>
			<g>
				<path style="fill:#86C7E0;" d="M245.272,473.908c-0.001-0.003-0.001-0.006-0.001-0.011
					C245.271,473.902,245.271,473.905,245.272,473.908z"/>
				<path style="fill:#86C7E0;" d="M245.354,474.427c0.002,0,0.002,0,0.002,0c-0.031-0.147-0.055-0.294-0.074-0.438
					C245.301,474.135,245.324,474.28,245.354,474.427z"/>
				<path style="fill:#86C7E0;" d="M245.89,475.931c-0.003-0.006-0.006-0.014-0.009-0.021
					C245.884,475.917,245.887,475.925,245.89,475.931z"/>
				<path style="fill:#86C7E0;" d="M245.838,475.83c-0.013-0.026-0.025-0.056-0.039-0.083
					C245.813,475.776,245.825,475.804,245.838,475.83z"/>
				<path style="fill:#86C7E0;" d="M245.504,475.006c0.08,0.25,0.176,0.492,0.286,0.724c-0.112-0.235-0.206-0.478-0.284-0.724
					C245.506,475.006,245.506,475.006,245.504,475.006z"/>
				<path style="fill:#86C7E0;" d="M251.546,467.699c0.313,0,0.544,0.023,0.809,0.068l0.076-0.478c0,0-0.732-0.225-1.694-0.146
					l-0.076-0.26c0.299-0.063,0.524-0.329,0.524-0.646c0-0.363-0.298-0.658-0.661-0.658c-0.365,0-0.66,0.295-0.66,0.658
					c0,0.317,0.225,0.584,0.522,0.646l0.085,0.29c-1.022,0.141-1.836,0.539-1.836,0.539l0.145,0.44
					c0.618-0.206,1.153-0.331,1.64-0.384C250.895,467.721,251.254,467.699,251.546,467.699z"/>
				<path style="fill:#86C7E0;" d="M245.878,470.109l0.003-0.005c0.025-0.03,0.048-0.06,0.07-0.089l-0.194-0.14l-0.306-0.224
					c-0.016,0.023-0.496,0.465-0.875,1.28c-0.016-0.026-0.035-0.052-0.056-0.075c-0.113-0.124-0.272-0.188-0.474-0.184
					c-0.003,0-0.006,0-0.01,0c-0.125,0-0.211-0.042-0.266-0.092c0.055-0.071,0.088-0.16,0.088-0.259c0-0.23-0.188-0.417-0.418-0.417
					s-0.418,0.186-0.418,0.417c0,0.231,0.188,0.418,0.418,0.418c0.037,0,0.07-0.006,0.105-0.014
					c0.102,0.115,0.264,0.215,0.504,0.209c0.123-0.001,0.213,0.03,0.273,0.099c0.069,0.075,0.092,0.184,0.1,0.268
					c-0.001,0.001-0.001,0.002-0.003,0.002c-0.273,0.743-0.193,1.668-0.193,1.668l0.66,0.027c0.013-0.337,0.063-0.927,0.233-1.394
					C245.449,470.7,245.861,470.134,245.878,470.109z"/>
				<path style="fill:#86C7E0;" d="M257.295,468.25c-0.229,0-0.418,0.188-0.418,0.419c0,0.036,0.006,0.069,0.015,0.103
					c-0.114,0.103-0.214,0.268-0.211,0.507c0.002,0.123-0.029,0.212-0.096,0.273c-0.054,0.046-0.12,0.072-0.185,0.088
					c-0.492-0.689-1.098-1.109-1.098-1.109l-0.475,0.508c0.359,0.326,0.725,0.734,1.08,1.244c0.246,0.352,0.499,0.807,0.71,1.26
					l0.641-0.305c0,0-0.292-0.723-0.703-1.37c0.071-0.024,0.142-0.063,0.206-0.12c0.126-0.112,0.186-0.272,0.184-0.474
					c-0.002-0.13,0.041-0.218,0.092-0.276c0.072,0.056,0.162,0.089,0.258,0.089c0.232,0,0.419-0.186,0.419-0.417
					C257.714,468.438,257.527,468.25,257.295,468.25z"/>
				<path style="fill:#86C7E0;" d="M255.636,474.003c-0.882,0.428-2.331,0.995-4.239,1.262c-0.75,0.104-1.475,0.141-2.144,0.141
					c-0.869,0-1.638-0.064-2.227-0.139c-0.673-0.084-1.198-0.189-1.521-0.261c0.078,0.245,0.172,0.488,0.284,0.724
					c0.002,0.006,0.005,0.014,0.009,0.018c0.014,0.027,0.026,0.057,0.039,0.083c0.014,0.027,0.027,0.055,0.043,0.08
					c0.003,0.007,0.006,0.015,0.009,0.021c0.189,0.356,0.418,0.685,0.677,0.969c0.899,0.983,1.816,1.14,1.825,1.142l0.015,0.001
					l0.013,0.004c0.009,0.004,0.821,0.267,2.058,0.267c1.216,0,2.409-0.245,3.546-0.73c0.842-0.43,1.639-1.085,2.034-1.668
					c0.305-0.452,0.525-0.933,0.655-1.433c0.07-0.267,0.126-0.693,0.092-1.142C256.557,473.507,256.165,473.743,255.636,474.003z"/>
				<path style="fill:#86C7E0;" d="M246.16,470.318c-0.025,0.038-0.406,0.579-0.709,1.408c-0.225,0.622-0.215,1.527-0.215,1.536
					v0.004c0,0.212,0.012,0.422,0.035,0.631c0,0.005,0,0.008,0.001,0.011c0.002,0.026,0.007,0.053,0.009,0.08
					c0.02,0.145,0.043,0.291,0.074,0.438c0.438,0.111,3.049,0.721,5.968,0.314c1.83-0.256,3.22-0.796,4.063-1.205
					c0.701-0.34,1.151-0.647,1.324-0.774c-0.173-0.642-0.65-1.65-1.088-2.279c-1.255-1.79-2.606-2.249-3.299-2.363
					c-0.266-0.043-0.478-0.069-0.777-0.069c-0.28,0-0.627,0.023-1.089,0.072c-0.465,0.048-0.982,0.17-1.584,0.373
					c-0.842,0.281-1.604,0.724-2.204,1.278l-0.021,0.02C246.561,469.876,246.375,470.047,246.16,470.318z M253.829,469.901
					c0.601,0,1.091,0.489,1.091,1.09c0,0.602-0.49,1.09-1.091,1.09c-0.601,0-1.088-0.488-1.088-1.09
					C252.741,470.391,253.229,469.901,253.829,469.901z M248.678,469.858c0.974,0,1.762,0.788,1.762,1.761
					c0,0.973-0.788,1.759-1.762,1.759c-0.972,0-1.759-0.786-1.759-1.759C246.919,470.647,247.706,469.858,248.678,469.858z"/>
			</g>
		</g>
	</g>
</g>
<g id="OBJECTS">
	<g>
		<path style="opacity:0.15;fill:#020202;" d="M384.742,122.617H156.848c-7.514,0-13.662,6.146-13.662,13.661v12.918v71.512
			c0,7.516,6.148,13.662,13.662,13.662h227.894c7.514,0,13.662-6.146,13.662-13.662v-71.512v-12.918
			C398.404,128.763,392.256,122.617,384.742,122.617z"/>
		<g>
			<g>
				<g>
					<g>
						<path style="fill:#EBE8D9;" d="M394.404,215.318c0,7.515-6.148,13.662-13.662,13.662H152.848
							c-7.514,0-13.662-6.146-13.662-13.662v-84.43c0-7.515,6.148-13.661,13.662-13.661h227.894c7.514,0,13.662,6.146,13.662,13.661
							V215.318z"/>
					</g>
					<path style="fill:#28A3C9;" d="M380.742,117.228H152.848c-7.514,0-13.662,6.146-13.662,13.661v12.917h255.219v-12.917
						C394.404,123.374,388.256,117.228,380.742,117.228z"/>
				</g>
				<g>
					<path style="fill:#EF5E65;" d="M385.164,130.517c0,4.395-3.563,7.958-7.957,7.958l0,0c-4.397,0-7.959-3.563-7.959-7.958l0,0
						c0-4.396,3.563-7.958,7.959-7.958l0,0C381.602,122.559,385.164,126.12,385.164,130.517L385.164,130.517z"/>
					<path style="fill:#FFFFFF;" d="M380.473,132.345c-0.609-0.61-1.219-1.221-1.828-1.828c0.609-0.609,1.219-1.22,1.828-1.83
						c0.93-0.926-0.51-2.365-1.438-1.437c-0.609,0.609-1.219,1.22-1.828,1.827c-0.611-0.607-1.221-1.218-1.83-1.827
						c-0.928-0.928-2.365,0.512-1.438,1.437c0.609,0.61,1.219,1.221,1.828,1.83c-0.609,0.607-1.219,1.218-1.828,1.828
						c-0.928,0.926,0.51,2.364,1.438,1.438c0.609-0.609,1.219-1.22,1.83-1.827c0.609,0.607,1.219,1.218,1.828,1.827
						C379.963,134.709,381.402,133.27,380.473,132.345z"/>
				</g>
				<g>
					<g>
						<path style="fill:#EF5E65;" d="M185.643,168.837c0,6.972-5.65,12.625-12.625,12.625l0,0c-6.973,0-12.623-5.653-12.623-12.625
							l0,0c0-6.975,5.65-12.624,12.623-12.624l0,0C179.992,156.213,185.643,161.862,185.643,168.837L185.643,168.837z"/>
						<path style="fill:#FFFFFF;" d="M178.201,171.737c-0.967-0.969-1.934-1.936-2.9-2.9c0.967-0.967,1.934-1.935,2.9-2.902
							c1.473-1.47-0.809-3.752-2.281-2.281c-0.969,0.967-1.934,1.936-2.902,2.898c-0.967-0.963-1.934-1.932-2.9-2.898
							c-1.473-1.471-3.754,0.811-2.281,2.281c0.965,0.968,1.934,1.936,2.9,2.902c-0.967,0.965-1.936,1.932-2.9,2.9
							c-1.473,1.47,0.809,3.751,2.281,2.281c0.967-0.969,1.934-1.936,2.9-2.9c0.969,0.964,1.934,1.931,2.902,2.9
							C177.393,175.488,179.674,173.207,178.201,171.737z"/>
					</g>
					<g>
						<rect x="204.352" y="166.008" style="fill:#D8D1B6;" width="168.844" height="5.659"/>
					</g>
				</g>
			</g>
			<g>
				<path style="fill:#D8D1B6;" d="M301.961,213.129c0,2.2-1.8,3.999-4,3.999h-62.332c-2.2,0-4-1.799-4-3.999v-14.667
					c0-2.2,1.8-4,4-4h62.332c2.2,0,4,1.8,4,4V213.129z"/>
				<g>
					<path style="fill:#EBE8D9;" d="M292.646,214.987h-3.934v-1h3.934V214.987z M284.78,214.987h-3.934v-1h3.934V214.987z
						 M276.913,214.987h-3.933v-1h3.933V214.987z M269.047,214.987h-3.934v-1h3.934V214.987z M261.181,214.987h-3.934v-1h3.934
						V214.987z M253.313,214.987h-3.934v-1h3.934V214.987z M245.447,214.987h-3.934v-1h3.934V214.987z M237.53,214.968
						c-1.559-0.159-2.851-1.348-3.142-2.89l0.982-0.186c0.209,1.11,1.14,1.966,2.261,2.081L237.53,214.968z M296.71,214.84
						l-0.285-0.959c1.082-0.323,1.838-1.335,1.838-2.462l1-0.036v0.036C299.263,212.984,298.213,214.391,296.71,214.84z
						 M235.327,208.057h-1v-3.934h1V208.057z M299.263,207.45h-1v-3.934h1V207.45z M234.327,200.189v-0.018
						c0-1.556,1.041-2.96,2.532-3.414l0.291,0.957c-1.073,0.327-1.823,1.337-1.823,2.457L234.327,200.189z M298.216,199.684
						c-0.215-1.109-1.149-1.959-2.272-2.067l0.096-0.996c1.56,0.151,2.859,1.332,3.159,2.872L298.216,199.684z M292.058,197.604
						h-3.933v-1h3.933V197.604z M284.191,197.604h-3.934v-1h3.934V197.604z M276.325,197.604h-3.934v-1h3.934V197.604z
						 M268.458,197.604h-3.933v-1h3.933V197.604z M260.592,197.604h-3.934v-1h3.934V197.604z M252.726,197.604h-3.934v-1h3.934
						V197.604z M244.858,197.604h-3.934v-1h3.934V197.604z"/>
				</g>
				
					<text transform="matrix(1 0 0 1 258.8643 210.1782)" style="fill:#F9F6E8; font-family:'Quicksand-Bold'; font-size:12.8839px;">OK</text>
			</g>
			<text transform="matrix(1 0 0 1 152.7944 135.082)" style="fill:#F9F6E8; font-family:'Quicksand-Bold'; font-size:12.8839px;">Critical Error</text>
		</g>
	</g>
	<g>
		<g>
			<text transform="matrix(1 0 0 1 136.042 61.3633)" style="fill:#86C7E0; font-family:'Quicksand-Bold'; font-size:28.2885px;">ANNOYING POP UP</text>
		</g>
		<g>
			<path style="fill:#86C7E0;" d="M410.135,74.375c-40.022,0-80.045,0-120.067,0c-58.671,0-117.343,0-176.014,0
				c-6.79,0-13.579,0-20.369,0c-1.224,0-2.447,0-3.671,0c0.427,0,0.476,1.018,0.476-0.648c0-2.593,0-5.187,0-7.781
				c0-12.946,0-25.892,0-38.837c0,0.491-1.104,0.516-0.13,0.516c0.606,0,1.212,0,1.818,0c2.327,0,4.654,0,6.982,0
				c53.109,0,106.218,0,159.327,0c49.194,0,98.39,0,147.585,0c1.287,0,2.574,0,3.862,0c-0.193,0-0.424-1.031-0.424,0.648
				c0,2.593,0,5.187,0,7.781c0,12.982,0,25.964,0,38.946c0,0.806,1.25,0.806,1.25,0c0-16,0-32,0-48c0-0.341-0.284-0.625-0.625-0.625
				c-40.022,0-80.045,0-120.067,0c-58.671,0-117.343,0-176.014,0c-8.063,0-16.126,0-24.188,0c-0.341,0-0.625,0.284-0.625,0.625
				c0,16,0,32,0,48c0,0.341,0.284,0.625,0.625,0.625c40.022,0,80.045,0,120.067,0c58.671,0,117.343,0,176.015,0
				c8.063,0,16.125,0,24.188,0C410.94,75.625,410.94,74.375,410.135,74.375z"/>
		</g>
	</g>
	<g>
		<path style="opacity:0.15;fill:#020202;" d="M341.922,157.163H114.027c-7.514,0-13.662,6.146-13.662,13.661v12.918v71.512
			c0,7.516,6.148,13.662,13.662,13.662h227.895c7.514,0,13.662-6.146,13.662-13.662v-71.512v-12.918
			C355.584,163.309,349.435,157.163,341.922,157.163z"/>
		<g>
			<g>
				<g>
					<g>
						<path style="fill:#EBE8D9;" d="M351.584,251.254c0,7.514-6.149,13.662-13.662,13.662H110.027
							c-7.514,0-13.662-6.148-13.662-13.662v-84.43c0-7.514,6.148-13.662,13.662-13.662h227.895c7.514,0,13.662,6.148,13.662,13.662
							V251.254z"/>
					</g>
					<path style="fill:#28A3C9;" d="M337.922,153.162H110.027c-7.514,0-13.662,6.148-13.662,13.662v12.917h255.218v-12.917
						C351.584,159.31,345.435,153.162,337.922,153.162z"/>
				</g>
				<g>
					<path style="fill:#EF5E65;" d="M342.344,166.452c0,4.395-3.563,7.958-7.957,7.958l0,0c-4.396,0-7.959-3.563-7.959-7.958l0,0
						c0-4.396,3.563-7.958,7.959-7.958l0,0C338.781,158.494,342.344,162.055,342.344,166.452L342.344,166.452z"/>
					<path style="fill:#FFFFFF;" d="M337.652,168.279c-0.609-0.61-1.219-1.22-1.828-1.828c0.609-0.61,1.219-1.22,1.828-1.83
						c0.93-0.926-0.51-2.365-1.438-1.438c-0.609,0.61-1.219,1.22-1.828,1.828c-0.611-0.607-1.221-1.218-1.83-1.828
						c-0.928-0.927-2.365,0.512-1.438,1.438c0.609,0.61,1.219,1.22,1.828,1.83c-0.609,0.608-1.219,1.218-1.828,1.828
						c-0.928,0.927,0.51,2.365,1.438,1.439c0.609-0.61,1.219-1.22,1.83-1.828c0.609,0.607,1.219,1.217,1.828,1.828
						C337.143,170.644,338.582,169.206,337.652,168.279z"/>
				</g>
				<g>
					<g>
						<path style="fill:#EF5E65;" d="M142.823,204.773c0,6.971-5.651,12.624-12.625,12.624l0,0c-6.973,0-12.624-5.653-12.624-12.624
							l0,0c0-6.975,5.651-12.625,12.624-12.625l0,0C137.171,192.148,142.823,197.798,142.823,204.773L142.823,204.773z"/>
						<path style="fill:#FFFFFF;" d="M135.38,207.672c-0.967-0.968-1.934-1.935-2.9-2.899c0.967-0.967,1.934-1.935,2.9-2.903
							c1.474-1.469-0.809-3.751-2.28-2.281c-0.969,0.968-1.934,1.936-2.902,2.899c-0.968-0.963-1.935-1.932-2.901-2.899
							c-1.472-1.47-3.754,0.812-2.28,2.281c0.965,0.968,1.934,1.936,2.9,2.903c-0.967,0.964-1.935,1.932-2.9,2.899
							c-1.474,1.47,0.809,3.751,2.28,2.282c0.967-0.968,1.934-1.936,2.901-2.899c0.969,0.964,1.934,1.931,2.902,2.899
							C134.572,211.423,136.854,209.142,135.38,207.672z"/>
					</g>
					<g>
						<rect x="161.531" y="196.113" style="fill:#D8D1B6;" width="168.844" height="5.659"/>
						<rect x="161.531" y="209.113" style="fill:#D8D1B6;" width="78" height="5.659"/>
					</g>
				</g>
			</g>
			<g>
				<path style="fill:#D8D1B6;" d="M259.141,249.064c0,2.2-1.8,4.001-4,4.001h-62.332c-2.2,0-4-1.801-4-4.001v-14.667
					c0-2.2,1.8-4,4-4h62.332c2.2,0,4,1.8,4,4V249.064z"/>
				<g>
					<path style="fill:#EBE8D9;" d="M249.826,250.922h-3.934v-1h3.934V250.922z M241.96,250.922h-3.934v-1h3.934V250.922z
						 M234.093,250.922h-3.933v-1h3.933V250.922z M226.227,250.922h-3.934v-1h3.934V250.922z M218.36,250.922h-3.934v-1h3.934
						V250.922z M210.493,250.922h-3.934v-1h3.934V250.922z M202.627,250.922h-3.934v-1h3.934V250.922z M194.71,250.903
						c-1.559-0.159-2.851-1.348-3.142-2.89l0.982-0.186c0.209,1.11,1.14,1.966,2.261,2.081L194.71,250.903z M253.89,250.775
						l-0.285-0.959c1.082-0.323,1.838-1.335,1.838-2.462l1-0.036v0.036C256.442,248.919,255.393,250.326,253.89,250.775z
						 M192.507,243.992h-1v-3.934h1V243.992z M256.442,243.385h-1v-3.934h1V243.385z M191.507,236.124v-0.018
						c0-1.556,1.041-2.96,2.532-3.414l0.291,0.957c-1.073,0.327-1.823,1.337-1.823,2.457L191.507,236.124z M255.395,235.619
						c-0.215-1.109-1.149-1.959-2.272-2.067l0.096-0.996c1.561,0.151,2.859,1.332,3.159,2.872L255.395,235.619z M249.237,233.539
						h-3.933v-1h3.933V233.539z M241.371,233.539h-3.934v-1h3.934V233.539z M233.505,233.539h-3.934v-1h3.934V233.539z
						 M225.638,233.539h-3.933v-1h3.933V233.539z M217.771,233.539h-3.934v-1h3.934V233.539z M209.905,233.539h-3.934v-1h3.934
						V233.539z M202.038,233.539h-3.934v-1h3.934V233.539z"/>
				</g>
				
					<text transform="matrix(1 0 0 1 216.0439 246.1133)" style="fill:#F9F6E8; font-family:'Quicksand-Bold'; font-size:12.8839px;">OK</text>
			</g>
			<text transform="matrix(1 0 0 1 109.9741 171.0171)" style="fill:#F9F6E8; font-family:'Quicksand-Bold'; font-size:12.8839px;">Error</text>
		</g>
	</g>
	<g>
		<path style="opacity:0.15;fill:#020202;" d="M452.07,212.045H224.175c-7.514,0-13.662,6.146-13.662,13.661v12.918v71.512
			c0,7.516,6.148,13.662,13.662,13.662H452.07c7.514,0,13.662-6.147,13.662-13.662v-71.512v-12.918
			C465.732,218.191,459.584,212.045,452.07,212.045z"/>
		<g>
			<g>
				<g>
					<g>
						<path style="fill:#EBE8D9;" d="M461.268,305.924c0,7.516-6.148,13.662-13.662,13.662H219.711
							c-7.514,0-13.662-6.146-13.662-13.662v-84.43c0-7.514,6.148-13.661,13.662-13.661h227.895c7.514,0,13.662,6.148,13.662,13.661
							V305.924z"/>
					</g>
					<path style="fill:#28A3C9;" d="M447.605,207.833H219.711c-7.514,0-13.662,6.148-13.662,13.661v12.918h255.218v-12.918
						C461.268,213.98,455.119,207.833,447.605,207.833z"/>
				</g>
				<g>
					<path style="fill:#EF5E65;" d="M452.027,221.123c0,4.395-3.563,7.957-7.957,7.957l0,0c-4.396,0-7.959-3.563-7.959-7.957l0,0
						c0-4.396,3.563-7.959,7.959-7.959l0,0C448.465,213.164,452.027,216.727,452.027,221.123L452.027,221.123z"/>
					<path style="fill:#FFFFFF;" d="M447.336,222.95c-0.609-0.61-1.219-1.22-1.828-1.827c0.609-0.61,1.219-1.221,1.828-1.83
						c0.93-0.927-0.51-2.365-1.438-1.438c-0.609,0.61-1.219,1.22-1.828,1.827c-0.611-0.607-1.221-1.217-1.83-1.827
						c-0.928-0.927-2.365,0.512-1.438,1.438c0.609,0.609,1.219,1.22,1.828,1.83c-0.609,0.607-1.219,1.217-1.828,1.827
						c-0.928,0.927,0.51,2.364,1.438,1.439c0.609-0.61,1.219-1.221,1.83-1.828c0.609,0.607,1.219,1.218,1.828,1.828
						C446.826,225.314,448.266,223.877,447.336,222.95z"/>
				</g>
				<g>
					<g>
						<path style="fill:#EF5E65;" d="M252.506,259.443c0,6.971-5.651,12.625-12.625,12.625l0,0c-6.973,0-12.624-5.654-12.624-12.625
							l0,0c0-6.975,5.651-12.625,12.624-12.625l0,0C246.855,246.818,252.506,252.469,252.506,259.443L252.506,259.443z"/>
						<path style="fill:#FFFFFF;" d="M245.064,262.342c-0.967-0.967-1.934-1.934-2.9-2.898c0.967-0.967,1.934-1.936,2.9-2.904
							c1.474-1.469-0.809-3.75-2.28-2.281c-0.969,0.969-1.934,1.938-2.902,2.9c-0.968-0.963-1.934-1.932-2.901-2.9
							c-1.472-1.469-3.754,0.813-2.28,2.281c0.965,0.969,1.934,1.938,2.9,2.904c-0.967,0.965-1.936,1.932-2.9,2.898
							c-1.474,1.471,0.809,3.752,2.28,2.283c0.967-0.969,1.934-1.935,2.901-2.9c0.969,0.965,1.934,1.932,2.902,2.9
							C244.255,266.094,246.538,263.813,245.064,262.342z"/>
					</g>
					<g>
						<rect x="271.215" y="250.783" style="fill:#D8D1B6;" width="168.844" height="5.66"/>
						<rect x="271.215" y="263.783" style="fill:#D8D1B6;" width="78" height="5.66"/>
					</g>
				</g>
			</g>
			<g>
				<path style="fill:#D8D1B6;" d="M368.824,303.734c0,2.201-1.8,4-4,4h-62.332c-2.2,0-4-1.799-4-4v-14.666c0-2.201,1.8-4,4-4
					h62.332c2.2,0,4,1.799,4,4V303.734z"/>
				<g>
					<path style="fill:#EBE8D9;" d="M359.51,305.594h-3.934v-1h3.934V305.594z M351.644,305.594h-3.934v-1h3.934V305.594z
						 M343.776,305.594h-3.933v-1h3.933V305.594z M335.91,305.594h-3.934v-1h3.934V305.594z M328.044,305.594h-3.934v-1h3.934
						V305.594z M320.177,305.594h-3.934v-1h3.934V305.594z M312.31,305.594h-3.933v-1h3.933V305.594z M304.394,305.574
						c-1.559-0.16-2.851-1.348-3.142-2.891l0.982-0.186c0.209,1.111,1.14,1.967,2.261,2.082L304.394,305.574z M363.573,305.445
						l-0.285-0.959c1.082-0.322,1.838-1.334,1.838-2.461l1-0.037v0.037C366.126,303.59,365.076,304.996,363.573,305.445z
						 M302.19,298.662h-1v-3.934h1V298.662z M366.126,298.057h-1v-3.934h1V298.057z M301.19,290.795v-0.018
						c0-1.555,1.041-2.959,2.532-3.414l0.291,0.957c-1.073,0.328-1.823,1.338-1.823,2.457L301.19,290.795z M365.079,290.289
						c-0.215-1.109-1.149-1.959-2.273-2.066l0.096-0.996c1.561,0.15,2.859,1.332,3.159,2.871L365.079,290.289z M358.921,288.209
						h-3.933v-1h3.933V288.209z M351.055,288.209h-3.934v-1h3.934V288.209z M343.188,288.209h-3.934v-1h3.934V288.209z
						 M335.321,288.209h-3.933v-1h3.933V288.209z M327.455,288.209h-3.934v-1h3.934V288.209z M319.589,288.209h-3.934v-1h3.934
						V288.209z M311.722,288.209h-3.934v-1h3.934V288.209z"/>
				</g>
				
					<text transform="matrix(1 0 0 1 325.7275 300.7842)" style="fill:#F9F6E8; font-family:'Quicksand-Bold'; font-size:12.8839px;">OK</text>
			</g>
			<text transform="matrix(1 0 0 1 219.6577 225.688)" style="fill:#F9F6E8; font-family:'Quicksand-Bold'; font-size:12.8839px;">System Error</text>
		</g>
	</g>
	<g>
		<path style="opacity:0.15;fill:#020202;" d="M284.289,248.456H56.395c-7.514,0-13.662,6.146-13.662,13.661v12.918v71.512
			c0,7.516,6.149,13.662,13.662,13.662h227.895c7.514,0,13.662-6.147,13.662-13.662v-71.512v-12.918
			C297.951,254.602,291.803,248.456,284.289,248.456z"/>
		<g>
			<g>
				<g>
					<g>
						<g>
							<path style="fill:#EBE8D9;" d="M293.951,342.547c0,7.516-6.148,13.662-13.662,13.662H52.395
								c-7.514,0-13.662-6.147-13.662-13.662v-84.43c0-7.514,6.149-13.662,13.662-13.662h227.895
								c7.514,0,13.662,6.147,13.662,13.662V342.547z"/>
						</g>
						<path style="fill:#28A3C9;" d="M280.289,244.456H52.395c-7.514,0-13.662,6.147-13.662,13.662v12.918h255.219v-12.918
							C293.951,250.603,287.803,244.456,280.289,244.456z"/>
					</g>
					<g>
						<path style="fill:#EF5E65;" d="M284.711,257.746c0,4.395-3.563,7.957-7.957,7.957l0,0c-4.397,0-7.959-3.563-7.959-7.957l0,0
							c0-4.396,3.563-7.958,7.959-7.958l0,0C281.148,249.788,284.711,253.35,284.711,257.746L284.711,257.746z"/>
						<path style="fill:#FFFFFF;" d="M280.02,259.574c-0.609-0.611-1.219-1.221-1.828-1.828c0.609-0.609,1.219-1.221,1.828-1.83
							c0.93-0.926-0.51-2.365-1.438-1.438c-0.609,0.609-1.219,1.219-1.828,1.826c-0.611-0.607-1.221-1.217-1.83-1.826
							c-0.928-0.928-2.365,0.512-1.438,1.438c0.609,0.609,1.219,1.221,1.828,1.83c-0.609,0.607-1.219,1.217-1.828,1.828
							c-0.928,0.926,0.51,2.363,1.438,1.438c0.609-0.609,1.219-1.221,1.83-1.828c0.609,0.607,1.219,1.219,1.828,1.828
							C279.51,261.938,280.949,260.5,280.02,259.574z"/>
					</g>
					<g>
						<g>
							<rect x="103.898" y="293.238" style="fill:#D8D1B6;" width="168.844" height="5.658"/>
						</g>
						<g>
							<g>
								<path style="fill:#28A3C9;" d="M85.189,296.066c0,6.971-5.65,12.625-12.625,12.625l0,0c-6.973,0-12.623-5.654-12.623-12.625
									l0,0c0-6.975,5.65-12.625,12.623-12.625l0,0C79.539,283.441,85.189,289.092,85.189,296.066L85.189,296.066z"/>
							</g>
							
								<text transform="matrix(1 0 0 1 67.8071 302.4526)" style="fill:#F9F6E8; font-family:'Quicksand-Bold'; font-size:19.291px;">?</text>
						</g>
					</g>
				</g>
				<g>
					<g>
						<path style="fill:#D8D1B6;" d="M157.09,340.357c0,2.201-1.8,4-4,4H90.758c-2.2,0-4-1.799-4-4v-14.666c0-2.201,1.8-4,4-4
							h62.332c2.2,0,4,1.799,4,4V340.357z"/>
						<g>
							<path style="fill:#EBE8D9;" d="M147.776,342.217h-3.934v-1h3.934V342.217z M139.91,342.217h-3.934v-1h3.934V342.217z
								 M132.042,342.217h-3.933v-1h3.933V342.217z M124.176,342.217h-3.934v-1h3.934V342.217z M116.31,342.217h-3.934v-1h3.934
								V342.217z M108.443,342.217h-3.934v-1h3.934V342.217z M100.577,342.217h-3.934v-1h3.934V342.217z M92.66,342.197
								c-1.559-0.16-2.851-1.348-3.142-2.891l0.982-0.186c0.209,1.111,1.14,1.967,2.261,2.082L92.66,342.197z M151.839,342.068
								l-0.285-0.959c1.082-0.322,1.838-1.334,1.838-2.461l1-0.037v0.037C154.392,340.213,153.342,341.619,151.839,342.068z
								 M90.456,335.285h-1v-3.934h1V335.285z M154.392,334.68h-1v-3.934h1V334.68z M89.456,327.418V327.4
								c0-1.555,1.041-2.959,2.532-3.414l0.291,0.957c-1.073,0.328-1.823,1.338-1.823,2.457L89.456,327.418z M153.345,326.912
								c-0.215-1.109-1.149-1.959-2.272-2.066l0.096-0.996c1.561,0.15,2.859,1.332,3.159,2.871L153.345,326.912z M147.187,324.832
								h-3.933v-1h3.933V324.832z M139.321,324.832h-3.934v-1h3.934V324.832z M131.455,324.832h-3.934v-1h3.934V324.832z
								 M123.587,324.832h-3.933v-1h3.933V324.832z M115.721,324.832h-3.934v-1h3.934V324.832z M107.855,324.832h-3.934v-1h3.934
								V324.832z M99.988,324.832h-3.934v-1h3.934V324.832z"/>
						</g>
						<text transform="matrix(1 0 0 1 114.0151 337.4072)" style="fill:#F9F6E8; font-family:'Quicksand-Bold'; font-size:11px;">Yes</text>
					</g>
					<g>
						<path style="fill:#D8D1B6;" d="M245.926,340.357c0,2.201-1.8,4-4,4h-62.332c-2.2,0-4-1.799-4-4v-14.666c0-2.201,1.8-4,4-4
							h62.332c2.2,0,4,1.799,4,4V340.357z"/>
						<g>
							<path style="fill:#EBE8D9;" d="M236.611,342.217h-3.934v-1h3.934V342.217z M228.745,342.217h-3.934v-1h3.934V342.217z
								 M220.878,342.217h-3.933v-1h3.933V342.217z M213.012,342.217h-3.934v-1h3.934V342.217z M205.145,342.217h-3.934v-1h3.934
								V342.217z M197.278,342.217h-3.934v-1h3.934V342.217z M189.412,342.217h-3.934v-1h3.934V342.217z M181.495,342.197
								c-1.559-0.16-2.851-1.348-3.142-2.891l0.982-0.186c0.209,1.111,1.14,1.967,2.261,2.082L181.495,342.197z M240.675,342.068
								l-0.285-0.959c1.082-0.322,1.838-1.334,1.838-2.461l1-0.037v0.037C243.227,340.213,242.178,341.619,240.675,342.068z
								 M179.292,335.285h-1v-3.934h1V335.285z M243.227,334.68h-1v-3.934h1V334.68z M178.292,327.418V327.4
								c0-1.555,1.041-2.959,2.532-3.414l0.291,0.957c-1.073,0.328-1.823,1.338-1.823,2.457L178.292,327.418z M242.181,326.912
								c-0.215-1.109-1.149-1.959-2.273-2.066l0.096-0.996c1.561,0.15,2.859,1.332,3.159,2.871L242.181,326.912z M236.022,324.832
								h-3.933v-1h3.933V324.832z M228.156,324.832h-3.934v-1h3.934V324.832z M220.29,324.832h-3.934v-1h3.934V324.832z
								 M212.423,324.832h-3.933v-1h3.933V324.832z M204.557,324.832h-3.934v-1h3.934V324.832z M196.69,324.832h-3.934v-1h3.934
								V324.832z M188.823,324.832h-3.934v-1h3.934V324.832z"/>
						</g>
						<text transform="matrix(1 0 0 1 204.1211 337.4072)" style="fill:#F9F6E8; font-family:'Quicksand-Bold'; font-size:11px;">No</text>
					</g>
				</g>
			</g>
			<text transform="matrix(1 0 0 1 52.3413 262.9155)" style="fill:#F9F6E8; font-family:'Quicksand-Bold'; font-size:12.8839px;">Question</text>
		</g>
	</g>
	<g>
		<path style="opacity:0.15;fill:#020202;" d="M407.188,311.887H179.294c-7.514,0-13.662,6.147-13.662,13.661v12.918v71.512
			c0,7.516,6.148,13.662,13.662,13.662h227.895c7.514,0,13.662-6.146,13.662-13.662v-71.512v-12.918
			C420.851,318.033,414.702,311.887,407.188,311.887z"/>
		<g>
			<g>
				<g>
					<g>
						<g>
							<path style="fill:#EBE8D9;" d="M416.851,405.978c0,7.516-6.148,13.662-13.662,13.662H175.294
								c-7.514,0-13.662-6.146-13.662-13.662v-84.43c0-7.515,6.148-13.661,13.662-13.661h227.895
								c7.514,0,13.662,6.147,13.662,13.661V405.978z"/>
						</g>
						<path style="fill:#28A3C9;" d="M403.188,307.887H175.294c-7.514,0-13.662,6.147-13.662,13.661v12.918h255.219v-12.918
							C416.851,314.033,410.702,307.887,403.188,307.887z"/>
					</g>
					<g>
						<path style="fill:#EF5E65;" d="M407.61,321.177c0,4.395-3.563,7.957-7.957,7.957l0,0c-4.397,0-7.959-3.563-7.959-7.957l0,0
							c0-4.396,3.563-7.958,7.959-7.958l0,0C404.048,313.219,407.61,316.78,407.61,321.177L407.61,321.177z"/>
						<path style="fill:#FFFFFF;" d="M402.919,323.005c-0.609-0.611-1.219-1.221-1.828-1.828c0.609-0.609,1.219-1.221,1.828-1.83
							c0.93-0.926-0.51-2.365-1.438-1.438c-0.609,0.609-1.219,1.219-1.828,1.826c-0.611-0.608-1.221-1.217-1.83-1.826
							c-0.928-0.928-2.365,0.512-1.438,1.438c0.609,0.609,1.219,1.221,1.828,1.83c-0.609,0.607-1.219,1.217-1.828,1.828
							c-0.928,0.926,0.51,2.363,1.438,1.438c0.609-0.609,1.219-1.221,1.83-1.828c0.609,0.607,1.219,1.219,1.828,1.828
							C402.409,325.368,403.849,323.931,402.919,323.005z"/>
					</g>
					<g>
						<g>
							<rect x="226.798" y="356.669" style="fill:#D8D1B6;" width="168.844" height="5.658"/>
						</g>
						<g>
							<path style="fill:#28A3C9;" d="M195.838,346.502c-1.367-2.085-3.605-2.085-4.972,0l-11.874,18.106
								c-1.367,2.084-0.446,3.79,2.047,3.79h7.779c2.493,0,4.533,0,4.534,0c0,0,2.04,0,4.533,0h7.779
								c2.493,0,3.414-1.706,2.047-3.79L195.838,346.502z"/>
							<g>
								<path style="fill:#EBE8D9;" d="M194.241,360.878c0,0.544-0.439,0.983-0.982,0.983l0,0c-0.543,0-0.983-0.439-0.983-0.983
									v-11.286c0-0.544,0.439-0.983,0.983-0.983l0,0c0.543,0,0.982,0.44,0.982,0.983V360.878z"/>
								<path style="fill:#EBE8D9;" d="M194.271,364.999c0,0.551-0.447,0.996-0.998,0.996c-0.552,0-0.997-0.445-0.997-0.996
									c0-0.552,0.446-0.997,0.997-0.997C193.824,364.002,194.271,364.447,194.271,364.999z"/>
							</g>
						</g>
					</g>
				</g>
				<g>
					<g>
						<path style="fill:#D8D1B6;" d="M279.989,403.788c0,2.201-1.799,4-4,4h-62.332c-2.199,0-4-1.799-4-4v-14.666
							c0-2.201,1.801-4,4-4h62.332c2.201,0,4,1.799,4,4V403.788z"/>
						<g>
							<path style="fill:#EBE8D9;" d="M270.675,405.647h-3.934v-1h3.934V405.647z M262.81,405.647h-3.934v-1h3.934V405.647z
								 M254.942,405.647h-3.934v-1h3.934V405.647z M247.075,405.647h-3.934v-1h3.934V405.647z M239.21,405.647h-3.934v-1h3.934
								V405.647z M231.343,405.647h-3.934v-1h3.934V405.647z M223.476,405.647h-3.934v-1h3.934V405.647z M215.56,405.628
								c-1.559-0.16-2.852-1.348-3.143-2.891l0.982-0.186c0.209,1.111,1.141,1.967,2.262,2.082L215.56,405.628z M274.739,405.499
								l-0.285-0.959c1.082-0.322,1.838-1.334,1.838-2.461l1-0.037v0.037C277.292,403.644,276.241,405.05,274.739,405.499z
								 M213.356,398.716h-1v-3.934h1V398.716z M277.292,398.11h-1v-3.934h1V398.11z M212.356,390.849v-0.018
								c0-1.555,1.041-2.959,2.531-3.414l0.291,0.957c-1.072,0.328-1.822,1.338-1.822,2.457L212.356,390.849z M276.245,390.343
								c-0.215-1.109-1.15-1.959-2.273-2.066l0.096-0.996c1.561,0.15,2.859,1.332,3.16,2.871L276.245,390.343z M270.087,388.263
								h-3.934v-1h3.934V388.263z M262.22,388.263h-3.934v-1h3.934V388.263z M254.354,388.263h-3.934v-1h3.934V388.263z
								 M246.487,388.263h-3.934v-1h3.934V388.263z M238.62,388.263h-3.934v-1h3.934V388.263z M230.755,388.263h-3.934v-1h3.934
								V388.263z M222.888,388.263h-3.934v-1h3.934V388.263z"/>
						</g>
						<text transform="matrix(1 0 0 1 236.9146 400.8379)" style="fill:#F9F6E8; font-family:'Quicksand-Bold'; font-size:11px;">Yes</text>
					</g>
					<g>
						<path style="fill:#D8D1B6;" d="M368.825,403.788c0,2.201-1.8,4-4,4h-62.332c-2.2,0-4-1.799-4-4v-14.666c0-2.201,1.8-4,4-4
							h62.332c2.2,0,4,1.799,4,4V403.788z"/>
						<g>
							<path style="fill:#EBE8D9;" d="M359.511,405.647h-3.934v-1h3.934V405.647z M351.645,405.647h-3.934v-1h3.934V405.647z
								 M343.777,405.647h-3.933v-1h3.933V405.647z M335.911,405.647h-3.934v-1h3.934V405.647z M328.045,405.647h-3.934v-1h3.934
								V405.647z M320.178,405.647h-3.934v-1h3.934V405.647z M312.311,405.647h-3.934v-1h3.934V405.647z M304.395,405.628
								c-1.559-0.16-2.851-1.348-3.142-2.891l0.982-0.186c0.209,1.111,1.14,1.967,2.261,2.082L304.395,405.628z M363.574,405.499
								l-0.285-0.959c1.082-0.322,1.838-1.334,1.838-2.461l1-0.037v0.037C366.127,403.644,365.077,405.05,363.574,405.499z
								 M302.191,398.716h-1v-3.934h1V398.716z M366.127,398.11h-1v-3.934h1V398.11z M301.191,390.849v-0.018
								c0-1.555,1.041-2.959,2.532-3.414l0.291,0.957c-1.073,0.328-1.823,1.338-1.823,2.457L301.191,390.849z M365.08,390.343
								c-0.215-1.109-1.149-1.959-2.272-2.066l0.096-0.996c1.561,0.15,2.859,1.332,3.159,2.871L365.08,390.343z M358.922,388.263
								h-3.933v-1h3.933V388.263z M351.056,388.263h-3.934v-1h3.934V388.263z M343.189,388.263h-3.934v-1h3.934V388.263z
								 M335.322,388.263h-3.933v-1h3.933V388.263z M327.456,388.263h-3.934v-1h3.934V388.263z M319.59,388.263h-3.934v-1h3.934
								V388.263z M311.723,388.263h-3.934v-1h3.934V388.263z"/>
						</g>
						<text transform="matrix(1 0 0 1 327.0205 400.8379)" style="fill:#F9F6E8; font-family:'Quicksand-Bold'; font-size:11px;">No</text>
					</g>
				</g>
			</g>
			<text transform="matrix(1 0 0 1 175.2407 326.3462)" style="fill:#F9F6E8; font-family:'Quicksand-Bold'; font-size:12.8839px;">Warning</text>
		</g>
	</g>
</g>
</svg>
